<svg id="svg" version="1.1" xmlns="http://www.w3.org/2000/svg" xmlns:xlink="http://www.w3.org/1999/xlink" width="400" height="400" viewBox="0, 0, 400,400"><g id="svgg"><path id="path0" d="M250.600 0.289 C 249.940 0.389,249.140 0.680,248.823 0.935 C 248.376 1.295,248.314 1.287,248.547 0.900 C 248.712 0.625,248.657 0.400,248.424 0.400 C 248.191 0.400,248.000 0.580,248.000 0.800 C 248.000 1.020,247.561 1.200,247.024 1.200 C 246.487 1.200,245.936 1.380,245.800 1.600 C 245.664 1.820,245.201 2.000,244.771 2.000 C 244.341 2.000,243.677 2.157,243.295 2.350 C 240.320 3.848,239.047 4.400,238.562 4.400 C 238.253 4.400,238.000 4.580,238.000 4.800 C 238.000 5.020,237.738 5.200,237.418 5.200 C 237.098 5.200,236.377 5.660,235.815 6.222 C 235.253 6.783,234.615 7.133,234.397 6.998 C 234.178 6.863,234.000 6.913,234.000 7.109 C 234.000 7.305,233.505 7.718,232.900 8.027 C 232.295 8.336,231.362 9.041,230.826 9.594 C 230.291 10.147,229.713 10.600,229.542 10.600 C 229.371 10.600,228.595 11.275,227.817 12.100 C 227.038 12.925,226.221 13.600,226.001 13.600 C 225.780 13.600,225.597 13.825,225.594 14.100 C 225.590 14.375,224.703 15.566,223.623 16.747 C 222.542 17.929,221.444 19.411,221.182 20.042 C 220.921 20.673,220.548 21.091,220.354 20.971 C 220.159 20.851,220.000 21.057,220.000 21.429 C 220.000 21.802,219.685 22.397,219.300 22.753 C 218.915 23.109,218.542 23.670,218.470 24.000 C 218.399 24.330,218.174 24.660,217.970 24.733 C 217.767 24.807,217.600 25.086,217.600 25.354 C 217.600 26.063,216.651 27.993,216.300 27.997 C 216.135 27.999,216.000 28.450,216.000 29.000 C 216.000 29.550,215.820 30.000,215.600 30.000 C 215.380 30.000,215.200 30.529,215.200 31.176 C 215.200 31.823,215.020 32.464,214.800 32.600 C 214.580 32.736,214.397 33.512,214.394 34.324 C 214.390 35.328,214.275 35.623,214.036 35.245 C 213.083 33.739,212.233 146.593,213.184 148.371 C 213.395 148.764,213.611 149.742,213.665 150.543 C 213.719 151.344,213.907 152.000,214.082 152.000 C 214.257 152.000,214.400 152.529,214.400 153.176 C 214.400 153.823,214.580 154.464,214.800 154.600 C 215.020 154.736,215.200 155.197,215.200 155.624 C 215.200 156.051,215.380 156.400,215.600 156.400 C 215.820 156.400,216.000 156.951,216.000 157.624 C 216.000 158.337,216.167 158.744,216.400 158.600 C 216.748 158.385,216.990 159.196,216.847 160.100 C 216.821 160.265,216.980 160.400,217.200 160.400 C 217.420 160.400,217.600 160.760,217.600 161.200 C 217.600 161.640,217.780 162.000,218.000 162.000 C 218.220 162.000,218.400 162.371,218.400 162.824 C 218.400 163.277,218.547 163.556,218.727 163.445 C 218.907 163.334,219.279 163.863,219.553 164.621 C 219.827 165.380,220.220 166.000,220.426 166.000 C 220.632 166.000,220.800 166.371,220.800 166.824 C 220.800 167.277,220.980 167.536,221.200 167.400 C 221.420 167.264,221.600 167.394,221.600 167.688 C 221.600 167.983,221.960 168.483,222.400 168.800 C 222.840 169.117,223.200 169.607,223.200 169.888 C 223.200 170.170,223.380 170.400,223.600 170.400 C 223.820 170.400,224.000 170.681,224.000 171.024 C 224.000 171.367,224.180 171.536,224.400 171.400 C 224.620 171.264,224.800 171.364,224.800 171.623 C 224.800 172.343,227.909 175.199,228.700 175.206 C 229.298 175.211,229.313 175.269,228.800 175.600 C 228.374 175.875,228.350 175.990,228.717 175.994 C 229.001 175.997,229.620 176.360,230.092 176.800 C 230.564 177.240,231.198 177.600,231.499 177.600 C 231.801 177.600,231.953 177.753,231.837 177.940 C 231.722 178.127,232.116 178.532,232.714 178.840 C 233.311 179.148,234.149 179.715,234.575 180.100 C 235.002 180.485,235.707 180.800,236.142 180.800 C 236.577 180.800,236.816 180.917,236.673 181.061 C 236.373 181.360,238.216 182.400,239.046 182.400 C 239.351 182.400,239.600 182.580,239.600 182.800 C 239.600 183.020,239.960 183.200,240.400 183.200 C 240.840 183.200,241.200 183.410,241.200 183.667 C 241.200 183.923,241.314 184.020,241.453 183.881 C 241.592 183.742,242.087 183.840,242.553 184.100 C 243.511 184.633,243.675 184.680,244.824 184.750 C 245.277 184.778,245.536 184.980,245.400 185.200 C 245.260 185.426,245.588 185.600,246.153 185.600 C 246.703 185.600,247.257 185.768,247.383 185.973 C 247.510 186.178,248.125 186.332,248.749 186.314 C 249.374 186.296,250.090 186.408,250.341 186.563 C 250.991 186.965,252.040 187.133,254.754 187.267 C 256.062 187.332,257.049 187.521,256.947 187.686 C 256.844 187.852,279.345 187.988,306.949 187.988 C 338.103 187.988,357.187 187.844,357.269 187.610 C 357.341 187.402,358.480 187.134,359.800 187.016 C 363.495 186.683,365.780 186.328,366.000 186.051 C 366.386 185.567,368.081 184.745,367.818 185.170 C 367.672 185.407,367.743 185.600,367.976 185.600 C 368.209 185.600,368.400 185.420,368.400 185.200 C 368.400 184.980,368.835 184.800,369.367 184.800 C 369.898 184.800,370.396 184.612,370.473 184.382 C 370.549 184.152,371.014 183.934,371.506 183.897 C 371.998 183.860,372.400 183.688,372.400 183.515 C 372.400 183.342,372.760 183.200,373.200 183.200 C 373.640 183.200,374.000 183.020,374.000 182.800 C 374.000 182.580,374.248 182.400,374.551 182.400 C 374.854 182.400,375.324 182.132,375.596 181.804 C 375.868 181.477,376.250 181.307,376.445 181.428 C 376.640 181.549,376.800 181.457,376.800 181.224 C 376.800 180.991,376.971 180.800,377.180 180.800 C 377.793 180.800,381.932 177.933,383.627 176.333 C 384.015 175.967,384.393 175.724,384.467 175.793 C 384.540 175.862,384.832 175.667,385.116 175.360 C 385.399 175.052,385.489 174.797,385.316 174.794 C 385.142 174.791,385.450 174.561,386.000 174.282 C 386.550 174.004,387.000 173.557,387.000 173.288 C 387.000 173.020,387.180 172.760,387.400 172.711 C 387.895 172.602,389.999 170.478,390.002 170.086 C 390.003 169.929,390.543 169.225,391.202 168.522 C 391.861 167.819,392.400 166.964,392.400 166.622 C 392.400 166.280,392.562 166.000,392.761 166.000 C 392.959 166.000,393.310 165.460,393.540 164.800 C 393.770 164.140,394.148 163.600,394.379 163.600 C 394.611 163.600,394.800 163.366,394.800 163.080 C 394.800 162.344,395.741 160.407,396.100 160.403 C 396.265 160.401,396.400 160.040,396.400 159.600 C 396.400 159.160,396.580 158.800,396.800 158.800 C 397.020 158.800,397.200 158.350,397.200 157.800 C 397.200 157.250,397.380 156.800,397.600 156.800 C 397.820 156.800,398.000 156.350,398.000 155.800 C 398.000 155.250,398.180 154.800,398.400 154.800 C 398.620 154.800,398.800 154.609,398.800 154.376 C 398.800 154.143,398.607 154.072,398.370 154.218 C 398.074 154.402,398.059 154.254,398.324 153.742 C 399.849 150.786,399.800 152.812,399.800 93.159 C 399.800 47.677,399.695 35.535,399.300 35.140 C 399.025 34.865,398.800 34.125,398.800 33.496 C 398.800 32.836,398.631 32.457,398.400 32.600 C 398.035 32.826,397.810 31.731,397.970 30.500 C 398.006 30.225,397.847 30.000,397.618 30.000 C 397.388 30.000,397.200 29.640,397.200 29.200 C 397.200 28.760,397.020 28.400,396.800 28.400 C 396.580 28.400,396.400 27.950,396.400 27.400 C 396.400 26.850,396.220 26.400,396.000 26.400 C 395.780 26.400,395.600 26.040,395.600 25.600 C 395.600 25.160,395.420 24.800,395.200 24.800 C 394.980 24.800,394.800 24.480,394.800 24.088 C 394.800 23.697,394.440 23.117,394.000 22.800 C 393.560 22.483,393.200 21.993,393.200 21.712 C 393.200 21.430,393.020 21.200,392.800 21.200 C 392.580 21.200,392.400 20.930,392.400 20.600 C 392.400 20.270,392.220 20.000,392.000 20.000 C 391.780 20.000,391.600 19.659,391.600 19.243 C 391.600 18.826,391.330 18.382,391.000 18.255 C 390.670 18.129,390.400 17.739,390.400 17.389 C 390.400 17.039,390.233 16.856,390.029 16.982 C 389.825 17.108,389.543 16.849,389.402 16.406 C 389.261 15.963,388.978 15.600,388.773 15.600 C 388.568 15.600,388.400 15.313,388.400 14.963 C 388.400 14.612,388.062 14.237,387.649 14.129 C 387.236 14.021,386.703 13.505,386.465 12.982 C 386.227 12.460,385.298 11.658,384.402 11.201 C 383.505 10.744,382.879 10.196,383.009 9.985 C 383.140 9.773,382.961 9.600,382.611 9.600 C 382.261 9.600,381.871 9.330,381.745 9.000 C 381.618 8.670,381.213 8.400,380.846 8.400 C 380.478 8.400,379.924 8.050,379.615 7.621 C 379.307 7.193,378.931 6.919,378.779 7.013 C 378.628 7.106,377.986 6.737,377.352 6.192 C 376.718 5.647,375.975 5.201,375.700 5.200 C 375.425 5.200,375.200 5.020,375.200 4.800 C 375.200 4.580,374.840 4.400,374.400 4.400 C 373.960 4.400,373.600 4.220,373.600 4.000 C 373.600 3.780,373.150 3.600,372.600 3.600 C 372.050 3.600,371.600 3.420,371.600 3.200 C 371.600 2.980,371.328 2.800,370.995 2.800 C 370.662 2.800,370.077 2.638,369.695 2.439 C 369.313 2.240,368.190 1.848,367.200 1.567 C 366.210 1.286,365.147 0.863,364.839 0.628 C 364.283 0.204,253.330 -0.125,250.600 0.289 " stroke="none" fill="#94bcfc" fill-rule="evenodd"></path><path id="path1" d="M37.000 0.288 C 36.120 0.379,35.229 0.621,35.020 0.827 C 34.811 1.032,34.136 1.200,33.520 1.200 C 32.904 1.200,32.400 1.380,32.400 1.600 C 32.400 1.820,31.860 2.000,31.200 2.000 C 30.540 2.000,30.000 2.180,30.000 2.400 C 30.000 2.620,29.685 2.801,29.300 2.801 C 28.915 2.802,28.011 3.162,27.290 3.601 C 26.570 4.041,25.797 4.400,25.574 4.400 C 25.350 4.400,24.780 4.760,24.308 5.200 C 23.836 5.640,23.213 6.000,22.925 6.000 C 22.636 6.000,22.400 6.180,22.400 6.400 C 22.400 6.620,22.040 6.800,21.600 6.800 C 21.160 6.800,20.800 6.947,20.800 7.126 C 20.800 7.306,20.089 7.853,19.219 8.341 C 18.349 8.830,16.999 9.850,16.219 10.608 C 15.439 11.366,14.800 11.871,14.800 11.732 C 14.800 11.592,14.125 12.172,13.300 13.022 C 12.475 13.871,11.800 14.678,11.800 14.814 C 11.800 14.950,11.224 15.638,10.519 16.343 C 9.814 17.047,8.836 18.338,8.345 19.212 C 7.854 20.085,7.306 20.800,7.126 20.800 C 6.947 20.800,6.800 21.120,6.800 21.512 C 6.800 21.903,6.440 22.483,6.000 22.800 C 5.560 23.117,5.200 23.697,5.200 24.088 C 5.200 24.480,5.020 24.800,4.800 24.800 C 4.580 24.800,4.400 25.160,4.400 25.600 C 4.400 26.040,4.240 26.400,4.044 26.400 C 3.848 26.400,3.449 27.210,3.157 28.200 C 2.865 29.190,2.485 30.000,2.313 30.000 C 2.141 30.000,2.000 30.540,2.000 31.200 C 2.000 31.860,1.820 32.400,1.600 32.400 C 1.380 32.400,1.200 32.904,1.200 33.520 C 1.200 34.136,0.975 34.865,0.700 35.140 C -0.033 35.873,-0.033 150.927,0.700 151.660 C 0.975 151.935,1.200 152.754,1.200 153.480 C 1.200 154.206,1.380 154.800,1.600 154.800 C 1.820 154.800,2.000 155.261,2.000 155.824 C 2.000 156.404,2.173 156.740,2.400 156.600 C 2.633 156.456,2.800 156.863,2.800 157.576 C 2.800 158.249,2.980 158.800,3.200 158.800 C 3.420 158.800,3.600 159.160,3.600 159.600 C 3.600 160.040,3.780 160.400,4.000 160.400 C 4.220 160.400,4.400 160.760,4.400 161.200 C 4.400 161.640,4.536 162.000,4.702 162.000 C 5.017 162.000,5.990 163.953,5.963 164.530 C 5.954 164.712,6.319 165.183,6.774 165.577 C 7.228 165.971,7.600 166.588,7.600 166.947 C 7.600 167.306,7.735 167.601,7.900 167.603 C 8.065 167.604,8.640 168.279,9.179 169.103 C 10.174 170.625,16.288 176.800,16.801 176.800 C 16.955 176.800,17.646 177.340,18.337 178.000 C 19.028 178.660,19.782 179.200,20.013 179.200 C 20.244 179.200,20.820 179.560,21.292 180.000 C 21.764 180.440,22.387 180.800,22.675 180.800 C 22.964 180.800,23.201 180.935,23.201 181.100 C 23.202 181.265,24.192 181.850,25.400 182.400 C 26.608 182.950,27.598 183.502,27.599 183.628 C 27.599 183.753,28.500 184.100,29.600 184.400 C 30.700 184.700,31.600 185.092,31.600 185.272 C 31.600 185.453,32.241 185.600,33.024 185.600 C 33.807 185.600,34.354 185.751,34.240 185.936 C 34.126 186.120,34.687 186.296,35.487 186.326 C 36.287 186.356,37.044 186.536,37.171 186.724 C 37.297 186.913,38.570 187.111,40.000 187.163 C 41.430 187.216,42.658 187.420,42.729 187.618 C 42.805 187.827,63.963 187.984,93.457 187.994 C 127.565 188.006,143.973 187.879,143.804 187.606 C 143.586 187.254,147.359 186.944,149.100 187.170 C 149.375 187.206,149.600 187.047,149.600 186.818 C 149.600 186.588,150.320 186.400,151.200 186.400 C 152.080 186.400,152.800 186.220,152.800 186.000 C 152.800 185.780,153.351 185.600,154.024 185.600 C 154.737 185.600,155.144 185.433,155.000 185.200 C 154.860 184.974,155.188 184.800,155.753 184.800 C 156.303 184.800,156.864 184.620,157.000 184.400 C 157.136 184.180,157.597 184.000,158.024 184.000 C 158.451 184.000,158.800 183.820,158.800 183.600 C 158.800 183.380,159.053 183.200,159.362 183.200 C 159.879 183.200,163.138 181.662,163.600 181.200 C 163.710 181.090,164.205 180.775,164.700 180.500 C 165.195 180.225,166.003 179.775,166.496 179.500 C 166.988 179.225,167.684 178.685,168.043 178.300 C 168.401 177.915,168.908 177.600,169.171 177.600 C 169.433 177.600,169.553 177.447,169.437 177.260 C 169.322 177.073,169.712 176.668,170.305 176.360 C 171.644 175.664,175.200 172.153,175.200 171.528 C 175.200 171.274,175.311 171.178,175.448 171.314 C 175.762 171.628,176.800 170.611,176.800 169.989 C 176.800 169.732,177.340 169.017,178.000 168.400 C 178.660 167.783,179.200 167.074,179.200 166.823 C 179.200 166.572,179.560 165.980,180.000 165.508 C 180.440 165.036,180.800 164.413,180.800 164.125 C 180.800 163.836,180.980 163.600,181.200 163.600 C 181.420 163.600,181.600 163.240,181.600 162.800 C 181.600 162.360,181.780 162.000,182.000 162.000 C 182.220 162.000,182.400 161.766,182.400 161.480 C 182.400 160.744,183.341 158.807,183.700 158.803 C 183.865 158.801,184.000 158.350,184.000 157.800 C 184.000 157.250,184.180 156.800,184.400 156.800 C 184.620 156.800,184.800 156.350,184.800 155.800 C 184.800 155.250,184.980 154.800,185.200 154.800 C 185.420 154.800,185.600 154.170,185.600 153.400 C 185.600 152.630,185.780 152.000,186.000 152.000 C 186.220 152.000,186.400 151.291,186.400 150.424 C 186.400 149.557,186.577 148.738,186.794 148.603 C 187.326 148.275,187.354 39.835,186.823 38.842 C 186.612 38.449,186.396 37.379,186.342 36.464 C 186.288 35.549,186.099 34.800,185.922 34.800 C 185.745 34.800,185.600 34.361,185.600 33.824 C 185.600 33.287,185.420 32.736,185.200 32.600 C 184.980 32.464,184.800 31.838,184.800 31.210 C 184.800 30.581,184.625 30.007,184.412 29.933 C 184.198 29.860,183.968 29.440,183.900 29.000 C 183.832 28.560,183.666 28.020,183.532 27.800 C 182.366 25.899,181.226 23.600,181.448 23.600 C 181.599 23.600,181.379 23.285,180.958 22.900 C 180.538 22.515,179.940 21.705,179.630 21.100 C 179.319 20.495,178.915 20.000,178.732 20.000 C 178.550 20.000,178.400 19.757,178.400 19.459 C 178.400 19.162,177.905 18.394,177.300 17.752 C 176.695 17.111,175.948 16.100,175.640 15.507 C 175.332 14.913,174.927 14.522,174.740 14.637 C 174.553 14.753,174.395 14.612,174.389 14.324 C 174.383 14.036,173.618 13.139,172.689 12.332 C 171.760 11.524,170.370 10.312,169.600 9.638 C 168.830 8.964,167.925 8.410,167.588 8.406 C 167.252 8.403,166.717 8.040,166.400 7.600 C 166.083 7.160,165.543 6.800,165.200 6.800 C 164.857 6.800,164.317 6.440,164.000 6.000 C 163.683 5.560,163.103 5.200,162.712 5.200 C 162.320 5.200,162.000 5.020,162.000 4.800 C 162.000 4.580,161.640 4.400,161.200 4.400 C 160.760 4.400,160.400 4.220,160.400 4.000 C 160.400 3.780,160.040 3.600,159.600 3.600 C 159.160 3.600,158.800 3.420,158.800 3.200 C 158.800 2.980,158.260 2.800,157.600 2.800 C 156.940 2.800,156.400 2.620,156.400 2.400 C 156.400 2.180,155.961 2.000,155.424 2.000 C 154.887 2.000,154.336 1.820,154.200 1.600 C 154.064 1.380,153.528 1.200,153.010 1.200 C 152.491 1.200,151.992 0.975,151.900 0.700 C 151.740 0.220,41.484 -0.175,37.000 0.288 M42.733 212.378 C 42.660 212.586,41.392 212.794,39.915 212.840 C 38.438 212.887,37.324 213.077,37.439 213.263 C 37.553 213.448,36.827 213.600,35.824 213.600 C 34.821 213.600,34.000 213.780,34.000 214.000 C 34.000 214.220,33.460 214.400,32.800 214.400 C 32.140 214.400,31.600 214.547,31.600 214.728 C 31.600 214.908,30.700 215.300,29.600 215.600 C 28.500 215.900,27.600 216.292,27.600 216.472 C 27.600 216.653,27.330 216.800,27.000 216.800 C 26.670 216.800,26.400 216.980,26.400 217.200 C 26.400 217.420,25.984 217.600,25.475 217.600 C 24.967 217.600,24.193 217.915,23.755 218.300 C 23.010 218.955,22.578 219.231,20.304 220.500 C 19.812 220.775,19.137 221.272,18.804 221.604 C 18.472 221.937,17.570 222.680,16.800 223.255 C 14.564 224.926,10.232 229.267,9.173 230.897 C 8.638 231.721,8.065 232.396,7.900 232.397 C 7.735 232.399,7.600 232.694,7.600 233.053 C 7.600 233.412,7.228 234.029,6.774 234.423 C 6.319 234.817,5.972 235.249,6.002 235.382 C 6.099 235.815,5.014 238.000,4.702 238.000 C 4.536 238.000,4.400 238.360,4.400 238.800 C 4.400 239.240,4.220 239.600,4.000 239.600 C 3.780 239.600,3.600 239.960,3.600 240.400 C 3.600 240.840,3.420 241.200,3.200 241.200 C 2.980 241.200,2.800 241.650,2.800 242.200 C 2.800 242.750,2.620 243.200,2.400 243.200 C 2.180 243.200,2.000 243.549,2.000 243.976 C 2.000 244.403,1.820 244.864,1.600 245.000 C 1.380 245.136,1.200 245.831,1.200 246.544 C 1.200 247.257,0.975 248.065,0.700 248.340 C -0.033 249.073,-0.033 364.127,0.700 364.860 C 0.975 365.135,1.200 365.864,1.200 366.480 C 1.200 367.096,1.380 367.600,1.600 367.600 C 1.820 367.600,2.000 368.140,2.000 368.800 C 2.000 369.460,2.180 370.000,2.400 370.000 C 2.620 370.000,2.800 370.362,2.800 370.805 C 2.800 371.647,3.446 372.984,4.304 373.917 C 4.581 374.218,4.705 374.630,4.580 374.832 C 4.455 375.035,4.543 375.200,4.776 375.200 C 5.009 375.200,5.200 375.436,5.200 375.725 C 5.200 376.013,5.560 376.636,6.000 377.108 C 6.440 377.580,6.800 378.178,6.800 378.436 C 6.800 378.695,7.134 379.197,7.543 379.553 C 7.951 379.909,8.406 380.580,8.552 381.045 C 8.699 381.509,9.570 382.679,10.489 383.645 C 11.407 384.610,12.078 385.408,11.979 385.417 C 11.881 385.426,12.475 386.129,13.300 386.978 C 14.125 387.828,14.800 388.391,14.800 388.231 C 14.800 388.070,15.544 388.668,16.453 389.559 C 17.363 390.451,18.488 391.300,18.953 391.447 C 19.419 391.594,20.091 392.049,20.447 392.457 C 20.803 392.866,21.305 393.200,21.564 393.200 C 21.822 393.200,22.420 393.560,22.892 394.000 C 23.364 394.440,23.987 394.800,24.275 394.800 C 24.564 394.800,24.800 394.980,24.800 395.200 C 24.800 395.420,25.066 395.600,25.390 395.600 C 25.715 395.600,26.570 395.959,27.290 396.399 C 28.011 396.838,28.915 397.198,29.300 397.199 C 29.685 397.199,30.000 397.380,30.000 397.600 C 30.000 397.820,30.540 398.000,31.200 398.000 C 31.860 398.000,32.400 398.180,32.400 398.400 C 32.400 398.620,33.041 398.800,33.824 398.800 C 34.607 398.800,35.147 398.963,35.024 399.162 C 34.552 399.926,44.728 400.051,97.367 399.927 C 140.414 399.827,151.768 399.696,151.900 399.300 C 151.992 399.025,152.592 398.800,153.233 398.800 C 153.875 398.800,154.400 398.620,154.400 398.400 C 154.400 398.180,154.839 398.000,155.376 398.000 C 155.913 398.000,156.464 397.820,156.600 397.600 C 156.736 397.380,157.287 397.200,157.824 397.200 C 158.361 397.200,158.801 397.065,158.803 396.900 C 158.806 396.586,160.706 395.600,161.308 395.600 C 161.500 395.600,161.929 395.328,162.261 394.996 C 162.593 394.664,163.058 394.512,163.294 394.658 C 163.549 394.815,163.607 394.736,163.438 394.462 C 163.269 394.188,163.407 394.000,163.776 394.000 C 164.119 394.000,164.400 393.820,164.400 393.600 C 164.400 393.380,164.720 393.200,165.112 393.200 C 165.503 393.200,166.083 392.840,166.400 392.400 C 166.717 391.960,167.265 391.600,167.618 391.600 C 167.970 391.600,169.190 390.730,170.329 389.666 C 171.468 388.602,172.400 387.801,172.400 387.884 C 172.400 388.267,174.260 386.084,174.760 385.114 C 175.068 384.516,175.473 384.122,175.660 384.237 C 175.847 384.353,176.000 384.206,176.000 383.912 C 176.000 383.617,176.360 383.117,176.800 382.800 C 177.240 382.483,177.600 381.993,177.600 381.712 C 177.600 381.430,177.780 381.200,178.000 381.200 C 178.220 381.200,178.400 380.970,178.400 380.688 C 178.400 380.407,178.760 379.917,179.200 379.600 C 179.640 379.283,180.000 378.769,180.000 378.459 C 180.000 378.148,180.388 377.558,180.861 377.147 C 181.335 376.736,181.599 376.400,181.448 376.400 C 181.226 376.400,182.366 374.101,183.532 372.200 C 183.666 371.980,183.832 371.440,183.900 371.000 C 183.968 370.560,184.198 370.140,184.412 370.067 C 184.625 369.993,184.800 369.419,184.800 368.790 C 184.800 368.162,184.980 367.536,185.200 367.400 C 185.420 367.264,185.600 366.713,185.600 366.176 C 185.600 365.639,185.745 365.200,185.922 365.200 C 186.099 365.200,186.288 364.451,186.342 363.536 C 186.396 362.621,186.612 361.551,186.823 361.157 C 187.337 360.196,187.327 252.035,186.812 251.415 C 186.605 251.165,186.391 250.295,186.336 249.481 C 186.281 248.666,186.093 248.000,185.918 248.000 C 185.743 248.000,185.600 247.370,185.600 246.600 C 185.600 245.830,185.420 245.200,185.200 245.200 C 184.980 245.200,184.800 244.750,184.800 244.200 C 184.800 243.650,184.620 243.200,184.400 243.200 C 184.180 243.200,184.000 242.750,184.000 242.200 C 184.000 241.650,183.865 241.199,183.700 241.197 C 183.341 241.193,182.400 239.256,182.400 238.520 C 182.400 238.234,182.220 238.000,182.000 238.000 C 181.780 238.000,181.600 237.640,181.600 237.200 C 181.600 236.760,181.420 236.400,181.200 236.400 C 180.980 236.400,180.800 236.164,180.800 235.875 C 180.800 235.587,180.440 234.964,180.000 234.492 C 179.560 234.020,179.200 233.428,179.200 233.177 C 179.200 232.926,178.660 232.217,178.000 231.600 C 177.340 230.983,176.800 230.273,176.800 230.020 C 176.800 229.439,171.365 224.000,170.785 224.000 C 170.547 224.000,170.464 223.820,170.600 223.600 C 170.736 223.380,170.466 223.200,170.000 223.200 C 169.534 223.200,169.264 223.020,169.400 222.800 C 169.536 222.580,169.367 222.400,169.024 222.400 C 168.681 222.400,168.400 222.220,168.400 222.000 C 168.400 221.780,168.119 221.600,167.776 221.600 C 167.433 221.600,167.264 221.420,167.400 221.200 C 167.536 220.980,167.277 220.800,166.824 220.800 C 166.371 220.800,166.000 220.650,166.000 220.468 C 166.000 220.285,165.505 219.880,164.900 219.568 C 164.295 219.255,163.451 218.685,163.025 218.300 C 162.598 217.915,161.934 217.600,161.548 217.600 C 161.163 217.600,160.736 217.420,160.600 217.200 C 160.464 216.980,160.003 216.800,159.576 216.800 C 159.149 216.800,158.800 216.620,158.800 216.400 C 158.800 216.180,158.451 216.000,158.024 216.000 C 157.597 216.000,157.136 215.820,157.000 215.600 C 156.864 215.380,156.403 215.200,155.976 215.200 C 155.549 215.200,155.200 215.059,155.200 214.887 C 155.200 214.715,154.705 214.534,154.100 214.484 C 153.495 214.434,152.940 214.215,152.867 213.997 C 152.793 213.778,152.028 213.600,151.167 213.600 C 150.305 213.600,149.600 213.448,149.600 213.263 C 149.600 213.078,148.385 212.888,146.900 212.841 C 145.415 212.794,144.141 212.590,144.070 212.387 C 143.891 211.882,42.911 211.874,42.733 212.378 M255.930 212.387 C 255.859 212.590,254.585 212.794,253.100 212.841 C 251.615 212.888,250.400 213.078,250.400 213.263 C 250.400 213.448,249.695 213.600,248.833 213.600 C 247.972 213.600,247.207 213.778,247.133 213.997 C 247.060 214.215,246.505 214.434,245.900 214.484 C 245.295 214.534,244.800 214.715,244.800 214.887 C 244.800 215.059,244.535 215.200,244.212 215.200 C 243.889 215.200,242.983 215.560,242.200 216.000 C 241.417 216.440,240.511 216.800,240.188 216.800 C 239.865 216.800,239.600 216.980,239.600 217.200 C 239.600 217.420,239.240 217.600,238.800 217.600 C 238.360 217.600,238.000 217.791,238.000 218.024 C 238.000 218.257,237.835 218.345,237.632 218.220 C 237.430 218.095,236.999 218.258,236.675 218.582 C 236.351 218.906,235.854 219.223,235.571 219.286 C 235.057 219.400,233.978 220.157,232.984 221.100 C 232.694 221.375,232.347 221.600,232.212 221.600 C 232.077 221.600,231.580 221.960,231.108 222.400 C 230.636 222.840,230.002 223.200,229.701 223.200 C 229.399 223.200,229.264 223.380,229.400 223.600 C 229.536 223.820,229.454 224.000,229.218 224.000 C 228.642 224.000,224.800 227.889,224.800 228.472 C 224.800 228.726,224.689 228.822,224.552 228.686 C 224.219 228.353,223.200 229.406,223.200 230.083 C 223.200 230.380,222.840 230.883,222.400 231.200 C 221.960 231.517,221.600 232.017,221.600 232.312 C 221.600 232.606,221.420 232.736,221.200 232.600 C 220.980 232.464,220.800 232.684,220.800 233.088 C 220.800 233.493,220.440 234.083,220.000 234.400 C 219.560 234.717,219.200 235.297,219.200 235.688 C 219.200 236.080,219.020 236.400,218.800 236.400 C 218.580 236.400,218.400 236.760,218.400 237.200 C 218.400 237.640,218.220 238.000,218.000 238.000 C 217.780 238.000,217.600 238.360,217.600 238.800 C 217.600 239.240,217.420 239.600,217.200 239.600 C 216.980 239.600,216.800 239.960,216.800 240.400 C 216.800 240.840,216.620 241.200,216.400 241.200 C 216.180 241.200,216.000 241.751,216.000 242.424 C 216.000 243.137,215.833 243.544,215.600 243.400 C 215.380 243.264,215.200 243.513,215.200 243.953 C 215.200 244.393,215.020 244.864,214.800 245.000 C 214.580 245.136,214.400 245.867,214.400 246.624 C 214.400 247.381,214.220 248.000,214.000 248.000 C 213.780 248.000,213.600 248.810,213.600 249.800 C 213.600 250.790,213.418 251.600,213.196 251.600 C 212.730 251.600,212.919 359.639,213.391 363.100 C 213.548 364.255,213.840 365.099,214.039 364.976 C 214.237 364.853,214.400 365.293,214.400 365.953 C 214.400 366.613,214.580 367.264,214.800 367.400 C 215.020 367.536,215.200 368.162,215.200 368.790 C 215.200 369.419,215.364 369.993,215.563 370.067 C 215.763 370.140,215.988 370.560,216.063 371.000 C 216.139 371.440,216.290 371.890,216.400 372.000 C 216.867 372.467,218.780 376.400,218.540 376.400 C 218.396 376.400,218.665 376.736,219.139 377.147 C 219.612 377.558,220.000 378.148,220.000 378.459 C 220.000 378.769,220.360 379.283,220.800 379.600 C 221.240 379.917,221.600 380.407,221.600 380.688 C 221.600 380.970,221.780 381.200,222.000 381.200 C 222.220 381.200,222.400 381.430,222.400 381.712 C 222.400 381.993,222.760 382.483,223.200 382.800 C 223.640 383.117,224.000 383.617,224.000 383.912 C 224.000 384.206,224.153 384.353,224.340 384.237 C 224.527 384.122,224.932 384.516,225.240 385.114 C 225.802 386.204,227.380 388.000,227.775 388.000 C 227.891 388.000,228.831 388.810,229.865 389.800 C 230.898 390.790,232.031 391.600,232.383 391.600 C 232.735 391.600,233.283 391.960,233.600 392.400 C 233.917 392.840,234.457 393.200,234.800 393.200 C 235.143 393.200,235.683 393.560,236.000 394.000 C 236.317 394.440,236.790 394.800,237.051 394.800 C 237.651 394.800,240.955 396.500,241.133 396.900 C 241.207 397.065,241.691 397.200,242.210 397.200 C 242.728 397.200,243.264 397.380,243.400 397.600 C 243.536 397.820,244.087 398.000,244.624 398.000 C 245.161 398.000,245.600 398.180,245.600 398.400 C 245.600 398.620,246.125 398.800,246.767 398.800 C 247.408 398.800,248.008 399.025,248.100 399.300 C 248.232 399.696,259.586 399.827,302.633 399.927 C 355.272 400.051,365.448 399.926,364.976 399.162 C 364.853 398.963,365.393 398.800,366.176 398.800 C 366.959 398.800,367.600 398.620,367.600 398.400 C 367.600 398.180,368.140 398.000,368.800 398.000 C 369.460 398.000,370.000 397.859,370.000 397.687 C 370.000 397.515,370.810 397.135,371.800 396.843 C 372.790 396.551,373.600 396.152,373.600 395.956 C 373.600 395.760,373.960 395.600,374.400 395.600 C 374.840 395.600,375.200 395.420,375.200 395.200 C 375.200 394.980,375.436 394.800,375.725 394.800 C 376.013 394.800,376.636 394.440,377.108 394.000 C 377.580 393.560,378.178 393.200,378.436 393.200 C 378.695 393.200,379.197 392.866,379.553 392.457 C 379.909 392.049,380.583 391.594,381.050 391.446 C 381.518 391.299,382.544 390.553,383.330 389.789 C 384.117 389.025,384.880 388.400,385.027 388.400 C 385.375 388.400,388.400 385.375,388.400 385.027 C 388.400 384.880,389.025 384.117,389.789 383.330 C 390.553 382.544,391.299 381.518,391.446 381.050 C 391.594 380.583,392.049 379.909,392.457 379.553 C 392.866 379.197,393.200 378.695,393.200 378.436 C 393.200 378.178,393.560 377.580,394.000 377.108 C 394.440 376.636,394.800 376.013,394.800 375.725 C 394.800 375.436,394.980 375.200,395.200 375.200 C 395.420 375.200,395.600 374.840,395.600 374.400 C 395.600 373.960,395.751 373.600,395.936 373.600 C 396.121 373.600,396.512 372.835,396.806 371.900 C 397.099 370.965,397.488 370.029,397.670 369.820 C 397.851 369.611,398.000 369.026,398.000 368.520 C 398.000 368.014,398.180 367.600,398.400 367.600 C 398.620 367.600,398.800 366.959,398.800 366.176 C 398.800 365.393,398.963 364.854,399.163 364.977 C 400.196 365.616,400.345 249.579,399.312 248.335 C 399.044 248.011,398.779 247.160,398.725 246.443 C 398.670 245.726,398.485 245.052,398.313 244.946 C 398.141 244.840,398.000 244.403,398.000 243.976 C 398.000 243.549,397.820 243.200,397.600 243.200 C 397.380 243.200,397.200 242.750,397.200 242.200 C 397.200 241.650,397.020 241.200,396.800 241.200 C 396.580 241.200,396.400 240.840,396.400 240.400 C 396.400 239.960,396.220 239.600,396.000 239.600 C 395.780 239.600,395.600 239.240,395.600 238.800 C 395.600 238.360,395.420 238.000,395.200 238.000 C 394.980 238.000,394.800 237.640,394.800 237.200 C 394.800 236.760,394.620 236.400,394.400 236.400 C 394.180 236.400,394.000 236.029,394.000 235.576 C 394.000 235.123,393.820 234.864,393.600 235.000 C 393.380 235.136,393.200 234.967,393.200 234.624 C 393.200 234.281,393.020 234.000,392.800 234.000 C 392.580 234.000,392.400 233.640,392.400 233.200 C 392.400 232.760,392.265 232.399,392.100 232.397 C 391.935 232.396,391.350 231.722,390.800 230.900 C 389.356 228.742,383.732 223.200,382.986 223.200 C 382.638 223.200,382.464 223.020,382.600 222.800 C 382.736 222.580,382.655 222.400,382.420 222.400 C 382.185 222.400,381.428 221.860,380.737 221.200 C 380.046 220.540,379.238 220.000,378.941 220.000 C 378.643 220.000,378.400 219.820,378.400 219.600 C 378.400 219.380,378.122 219.200,377.783 219.200 C 377.444 219.200,376.780 218.840,376.308 218.400 C 375.836 217.960,375.123 217.600,374.725 217.600 C 374.326 217.600,374.000 217.420,374.000 217.200 C 374.000 216.980,373.640 216.800,373.200 216.800 C 372.760 216.800,372.400 216.620,372.400 216.400 C 372.400 216.180,371.939 216.000,371.376 216.000 C 370.796 216.000,370.460 215.827,370.600 215.600 C 370.744 215.367,370.337 215.200,369.624 215.200 C 368.951 215.200,368.400 215.020,368.400 214.800 C 368.400 214.580,367.860 214.400,367.200 214.400 C 366.540 214.400,366.000 214.220,366.000 214.000 C 366.000 213.780,365.179 213.600,364.176 213.600 C 363.173 213.600,362.447 213.448,362.561 213.263 C 362.676 213.077,361.562 212.887,360.085 212.840 C 358.608 212.794,357.340 212.586,357.267 212.378 C 357.089 211.874,256.109 211.882,255.930 212.387 " stroke="none" fill="#2c5cdc" fill-rule="evenodd"></path><path id="path2" d="" stroke="none" fill="#7cc0ec" fill-rule="evenodd"></path><path id="path3" d="" stroke="none" fill="#4490ec" fill-rule="evenodd"></path></g></svg>