<svg version="1.1" id="Layer_1" xmlns="http://www.w3.org/2000/svg" xmlns:xlink="http://www.w3.org/1999/xlink" x="0px" y="0px"
	 width="100%" viewBox="0 0 512 512" enable-background="new 0 0 512 512" xml:space="preserve">
<path fill="#95BAF9" opacity="1.000000" stroke="none" 
	d="
M319.000000,1.000001 
	C368.354218,1.000000 417.708466,1.000000 467.200134,1.295915 
	C468.135895,2.066638 468.877594,2.744862 469.741119,2.985119 
	C479.497314,5.699476 487.933167,10.849274 495.122223,17.763931 
	C502.582977,24.939894 507.762482,33.731998 510.945648,43.656082 
	C511.236755,44.563660 512.296936,45.224556 513.000000,46.000004 
	C513.000000,95.354225 513.000000,144.708450 512.695679,194.198822 
	C511.935913,194.976700 511.222443,195.560669 511.063873,196.268890 
	C508.949707,205.710587 504.013214,213.654434 497.702728,220.732605 
	C484.947205,235.039902 468.485474,240.942368 449.697571,240.978653 
	C412.208862,241.051025 374.719940,241.027130 337.231140,240.988770 
	C318.412476,240.969513 301.994171,234.867340 289.292328,220.672058 
	C279.838226,210.106461 274.014832,197.769836 274.007416,183.230606 
	C273.986328,141.909607 274.083191,100.588348 273.957825,59.267719 
	C273.909576,43.369133 280.245972,30.205057 290.735992,18.885944 
	C297.808258,11.254692 306.738556,6.268149 316.654419,3.055399 
	C317.562897,2.761057 318.224030,1.703275 319.000000,1.000001 
z"/>
<path fill="#2C5EDE" opacity="1.000000" stroke="none" 
	d="
M46.000000,1.000000 
	C95.354225,1.000000 144.708450,1.000000 194.269684,1.336050 
	C195.743896,2.336561 196.945480,3.208699 198.288544,3.633024 
	C210.339569,7.440403 220.285034,14.224029 227.862503,24.378279 
	C235.602737,34.750656 240.063660,46.210361 240.034210,59.361767 
	C239.941406,100.820366 240.021271,142.279343 239.956863,183.738052 
	C239.952057,186.830719 239.643250,189.993561 238.952209,193.003571 
	C232.287140,222.034622 208.416931,240.614456 179.143143,240.903458 
	C139.852676,241.291351 100.555305,241.067505 61.261337,240.953934 
	C50.809425,240.923721 40.796188,238.227783 31.763252,233.094238 
	C17.185530,224.809540 7.341484,212.528702 2.871058,196.164032 
	C2.729113,195.644424 1.644928,195.382217 0.999999,195.000000 
	C1.000000,145.645767 1.000000,96.291542 1.336037,46.730438 
	C2.435641,44.956532 3.117230,43.342926 3.976701,41.830391 
	C8.108159,34.559681 11.492922,26.681101 16.652685,20.225069 
	C23.000956,12.281944 31.769012,7.019339 41.659416,3.910341 
	C43.253693,3.409189 44.560375,1.993133 46.000000,1.000000 
z"/>
<path fill="#2C5EDE" opacity="1.000000" stroke="none" 
	d="
M195.000000,513.000000 
	C145.645767,513.000000 96.291542,513.000000 46.730042,512.663818 
	C44.944401,511.562988 43.314896,510.887634 41.796349,510.018433 
	C34.479229,505.830139 26.521065,502.413239 20.066898,497.155579 
	C12.292689,490.822571 7.017168,482.160828 3.915898,472.379852 
	C3.406484,470.773254 1.994717,469.452759 0.999995,468.000000 
	C1.000000,418.645782 1.000000,369.291534 1.349937,319.710358 
	C2.125696,318.822784 2.748364,318.216370 2.947549,317.493317 
	C5.561935,308.002777 10.295233,299.714172 16.984127,292.524750 
	C29.708361,278.848389 45.769417,273.074005 64.081245,273.027954 
	C101.220222,272.934601 138.359650,273.036285 175.498779,272.982452 
	C190.630585,272.960510 204.661926,276.408569 216.705017,285.943634 
	C230.916672,297.195648 239.710861,311.728943 239.878662,330.074554 
	C240.262512,372.040009 239.899536,414.011871 240.087158,455.979980 
	C240.123550,464.120453 237.987228,471.621002 234.580704,478.649902 
	C227.052368,494.183533 215.186005,505.104645 198.427094,510.324615 
	C197.132538,510.727783 196.135376,512.085815 195.000000,513.000000 
z"/>
<path fill="#2C5EDE" opacity="1.000000" stroke="none" 
	d="
M468.000000,513.000000 
	C418.645782,513.000000 369.291534,513.000000 319.730042,512.663879 
	C318.255310,511.663116 317.053650,510.789551 315.710083,510.366547 
	C303.636353,506.565033 293.654175,499.770630 286.122498,489.577576 
	C278.456757,479.203125 273.876740,467.822479 273.933990,454.593903 
	C274.113556,413.128021 273.976929,371.660828 274.044556,330.194275 
	C274.049866,326.937622 274.293793,323.582062 275.091980,320.441498 
	C282.499664,291.297089 305.642639,273.473785 334.931641,273.118378 
	C374.227570,272.641510 413.533783,272.945526 452.835297,273.037323 
	C463.132172,273.061371 473.076324,275.670990 481.934052,280.623871 
	C496.662292,288.859222 506.618073,301.315887 511.128967,317.832855 
	C511.271118,318.353424 512.355103,318.616760 513.000000,319.000000 
	C513.000000,368.354218 513.000000,417.708466 512.663818,467.270081 
	C511.564270,469.043640 510.881744,470.655701 510.023743,472.168182 
	C505.896118,479.444489 502.562378,487.379517 497.348145,493.777924 
	C490.952332,501.626343 482.223328,506.974335 472.337982,510.090088 
	C470.744568,510.592316 469.438751,512.007080 468.000000,513.000000 
z"/>
<path fill="#000000" opacity="1.000000" stroke="none" 
	d="
M513.000000,318.531342 
	C512.355103,318.616760 511.271118,318.353424 511.128967,317.832855 
	C506.618073,301.315887 496.662292,288.859222 481.934052,280.623871 
	C473.076324,275.670990 463.132172,273.061371 452.835297,273.037323 
	C413.533783,272.945526 374.227570,272.641510 334.931641,273.118378 
	C305.642639,273.473785 282.499664,291.297089 275.091980,320.441498 
	C274.293793,323.582062 274.049866,326.937622 274.044556,330.194275 
	C273.976929,371.660828 274.113556,413.128021 273.933990,454.593903 
	C273.876740,467.822479 278.456757,479.203125 286.122498,489.577576 
	C293.654175,499.770630 303.636353,506.565033 315.710083,510.366547 
	C317.053650,510.789551 318.255310,511.663116 319.261414,512.663879 
	C277.979095,513.000000 236.958206,513.000000 195.468658,513.000000 
	C196.135376,512.085815 197.132538,510.727783 198.427094,510.324615 
	C215.186005,505.104645 227.052368,494.183533 234.580704,478.649902 
	C237.987228,471.621002 240.123550,464.120453 240.087158,455.979980 
	C239.899536,414.011871 240.262512,372.040009 239.878662,330.074554 
	C239.710861,311.728943 230.916672,297.195648 216.705017,285.943634 
	C204.661926,276.408569 190.630585,272.960510 175.498779,272.982452 
	C138.359650,273.036285 101.220222,272.934601 64.081245,273.027954 
	C45.769417,273.074005 29.708361,278.848389 16.984127,292.524750 
	C10.295233,299.714172 5.561935,308.002777 2.947549,317.493317 
	C2.748364,318.216370 2.125696,318.822784 1.349937,319.241699 
	C1.000000,277.979095 1.000000,236.958206 0.999999,195.468658 
	C1.644928,195.382217 2.729113,195.644424 2.871058,196.164032 
	C7.341484,212.528702 17.185530,224.809540 31.763252,233.094238 
	C40.796188,238.227783 50.809425,240.923721 61.261337,240.953934 
	C100.555305,241.067505 139.852676,241.291351 179.143143,240.903458 
	C208.416931,240.614456 232.287140,222.034622 238.952209,193.003571 
	C239.643250,189.993561 239.952057,186.830719 239.956863,183.738052 
	C240.021271,142.279343 239.941406,100.820366 240.034210,59.361767 
	C240.063660,46.210361 235.602737,34.750656 227.862503,24.378279 
	C220.285034,14.224029 210.339569,7.440403 198.288544,3.633024 
	C196.945480,3.208699 195.743896,2.336561 194.738342,1.336050 
	C236.020889,1.000000 277.041779,1.000000 318.531342,1.000001 
	C318.224030,1.703275 317.562897,2.761057 316.654419,3.055399 
	C306.738556,6.268149 297.808258,11.254692 290.735992,18.885944 
	C280.245972,30.205057 273.909576,43.369133 273.957825,59.267719 
	C274.083191,100.588348 273.986328,141.909607 274.007416,183.230606 
	C274.014832,197.769836 279.838226,210.106461 289.292328,220.672058 
	C301.994171,234.867340 318.412476,240.969513 337.231140,240.988770 
	C374.719940,241.027130 412.208862,241.051025 449.697571,240.978653 
	C468.485474,240.942368 484.947205,235.039902 497.702728,220.732605 
	C504.013214,213.654434 508.949707,205.710587 511.063873,196.268890 
	C511.222443,195.560669 511.935913,194.976700 512.695679,194.667480 
	C513.000000,236.020889 513.000000,277.041779 513.000000,318.531342 
z"/>
<path fill="#000000" opacity="1.000000" stroke="none" 
	d="
M513.000000,45.531345 
	C512.296936,45.224556 511.236755,44.563660 510.945648,43.656082 
	C507.762482,33.731998 502.582977,24.939894 495.122223,17.763931 
	C487.933167,10.849274 479.497314,5.699476 469.741119,2.985119 
	C468.877594,2.744862 468.135895,2.066638 467.668823,1.295915 
	C482.926697,1.000000 497.853394,1.000000 513.000000,1.000000 
	C513.000000,15.686830 513.000000,30.374756 513.000000,45.531345 
z"/>
<path fill="#000000" opacity="1.000000" stroke="none" 
	d="
M0.999995,468.468658 
	C1.994717,469.452759 3.406484,470.773254 3.915898,472.379852 
	C7.017168,482.160828 12.292689,490.822571 20.066898,497.155579 
	C26.521065,502.413239 34.479229,505.830139 41.796349,510.018433 
	C43.314896,510.887634 44.944401,511.562988 46.261383,512.663818 
	C31.073294,513.000000 16.146585,513.000000 1.000000,513.000000 
	C1.000000,498.313171 1.000000,483.625244 0.999995,468.468658 
z"/>
<path fill="#000000" opacity="1.000000" stroke="none" 
	d="
M468.468658,513.000000 
	C469.438751,512.007080 470.744568,510.592316 472.337982,510.090088 
	C482.223328,506.974335 490.952332,501.626343 497.348145,493.777924 
	C502.562378,487.379517 505.896118,479.444489 510.023743,472.168182 
	C510.881744,470.655701 511.564270,469.043640 512.663818,467.738739 
	C513.000000,482.926697 513.000000,497.853394 513.000000,513.000000 
	C498.313171,513.000000 483.625244,513.000000 468.468658,513.000000 
z"/>
<path fill="#000000" opacity="1.000000" stroke="none" 
	d="
M45.531342,1.000000 
	C44.560375,1.993133 43.253693,3.409189 41.659416,3.910341 
	C31.769012,7.019339 23.000956,12.281944 16.652685,20.225069 
	C11.492922,26.681101 8.108159,34.559681 3.976701,41.830391 
	C3.117230,43.342926 2.435641,44.956532 1.336037,46.261780 
	C1.000000,31.073294 1.000000,16.146585 1.000000,1.000000 
	C15.686830,1.000000 30.374756,1.000000 45.531342,1.000000 
z"/>
</svg>