<?xml version="1.0" standalone="no"?>
<!DOCTYPE svg PUBLIC "-//W3C//DTD SVG 20010904//EN"
 "http://www.w3.org/TR/2001/REC-SVG-20010904/DTD/svg10.dtd">
<svg version="1.0" xmlns="http://www.w3.org/2000/svg"
 width="512.000000pt" height="512.000000pt" viewBox="0 0 512.000000 512.000000"
 preserveAspectRatio="xMidYMid meet">

<g transform="translate(0.000000,512.000000) scale(0.100000,-0.100000)"
fill="#000000" stroke="none">
<path d="M493 5105 c-182 -33 -345 -160 -429 -333 -63 -129 -65 -160 -62 -894
3 -599 5 -658 22 -708 26 -79 80 -178 127 -233 79 -92 225 -174 348 -197 32
-6 315 -10 700 -10 709 0 725 1 843 60 162 80 265 201 324 380 17 51 19 108
22 708 2 537 1 667 -12 736 -42 249 -239 448 -484 492 -108 19 -1292 18 -1399
-1z"/>
<path d="M491 2379 c-176 -34 -340 -159 -421 -318 -67 -133 -64 -100 -68 -819
-2 -536 0 -668 12 -737 43 -251 240 -448 491 -491 69 -12 199 -14 732 -11 568
3 655 5 703 20 175 53 310 167 384 322 62 129 61 115 61 860 0 631 -1 684 -18
739 -70 226 -238 384 -457 432 -52 11 -193 13 -720 13 -360 -1 -675 -5 -699
-10z"/>
<path d="M3221 2379 c-176 -34 -340 -159 -421 -318 -67 -133 -64 -100 -68
-819 -3 -734 -1 -765 62 -894 62 -128 156 -222 284 -284 129 -63 161 -65 889
-61 568 3 655 5 703 20 175 53 310 167 384 322 62 129 61 115 61 860 0 631 -1
684 -18 739 -70 226 -238 384 -457 432 -52 11 -193 13 -720 13 -360 -1 -675
-5 -699 -10z"/>
</g>
</svg>
